<svg width="41" height="41" viewBox="0 0 41 41" fill="none" xmlns="http://www.w3.org/2000/svg">
<g clip-path="url(#clip0_74_1128)">
<path d="M34.1667 0H6.83333C3.05939 0 0 3.05939 0 6.83333V34.1667C0 37.9406 3.05939 41 6.83333 41H34.1667C37.9406 41 41 37.9406 41 34.1667V6.83333C41 3.05939 37.9406 0 34.1667 0Z" fill="#001B94"/>
<path d="M27.9713 17.432C28.5853 17.432 29.0836 16.9326 29.0836 16.3165C29.0836 15.7004 28.5853 15.2007 27.9713 15.2007C27.357 15.2007 26.8586 15.7004 26.8586 16.3165C26.8586 16.9326 27.357 17.432 27.9713 17.432Z" fill="white"/>
<path d="M24.6333 14.085C25.2476 14.085 25.7461 13.5853 25.7461 12.9692C25.7461 12.3535 25.2476 11.8538 24.6333 11.8538C24.019 11.8538 23.521 12.3535 23.521 12.9692C23.521 13.5853 24.019 14.085 24.6333 14.085Z" fill="white"/>
<path d="M27.9713 14.085C28.5853 14.085 29.0836 13.5853 29.0836 12.9692C29.0836 12.3535 28.5853 11.8538 27.9713 11.8538C27.357 11.8538 26.8586 12.3535 26.8586 12.9692C26.8586 13.5853 27.357 14.085 27.9713 14.085Z" fill="white"/>
<path d="M21.2962 14.085C21.9101 14.085 22.4085 13.5853 22.4085 12.9692C22.4085 12.3535 21.9101 11.8538 21.2962 11.8538C20.6817 11.8538 20.1833 12.3535 20.1833 12.9692C20.1833 13.5853 20.6817 14.085 21.2962 14.085Z" fill="white"/>
<path d="M30.9826 10.9694C31.4172 10.5333 31.4172 9.82712 30.9826 9.39141C30.5482 8.9557 29.844 8.9557 29.4091 9.39141C28.975 9.82712 28.975 10.5333 29.4091 10.9694C29.844 11.4048 30.5482 11.4048 30.9826 10.9694Z" fill="white"/>
<path d="M33.7641 8.73812C34.1985 8.30204 34.1985 7.59583 33.7641 7.16012C33.3297 6.72441 32.6253 6.72441 32.1906 7.16012C31.7565 7.59583 31.7565 8.30204 32.1906 8.73812C32.6253 9.17346 33.3297 9.17346 33.7641 8.73812Z" fill="white"/>
<path d="M17.402 14.085C18.0165 14.085 18.5148 13.5853 18.5148 12.9692C18.5148 12.3535 18.0165 11.8538 17.402 11.8538C16.7877 11.8538 16.2898 12.3535 16.2898 12.9692C16.2898 13.5853 16.7877 14.085 17.402 14.085Z" fill="white"/>
<path d="M14.0649 14.085C14.6792 14.085 15.1772 13.5853 15.1772 12.9692C15.1772 12.3535 14.6792 11.8538 14.0649 11.8538C13.4505 11.8538 12.9521 12.3535 12.9521 12.9692C12.9521 13.5853 13.4505 14.085 14.0649 14.085Z" fill="white"/>
<path d="M29.0836 19.6631C29.0836 19.0474 28.5853 18.5475 27.9713 18.5475C27.357 18.5475 26.8586 19.0474 26.8586 19.6631C26.8586 20.2791 27.357 20.779 27.9713 20.779C28.5853 20.779 29.0836 20.2791 29.0836 19.6631Z" fill="white"/>
<path d="M14.6206 30.8197C15.235 30.8197 15.7333 30.32 15.7333 29.7038C15.7333 29.0878 15.235 28.5884 14.6206 28.5884C14.0066 28.5884 13.5083 29.0878 13.5083 29.7038C13.5083 30.32 14.0066 30.8197 14.6206 30.8197Z" fill="white"/>
<path d="M11.2836 27.4727C11.898 27.4727 12.3959 26.9731 12.3959 26.3574C12.3959 25.7412 11.898 25.2415 11.2836 25.2415C10.6692 25.2415 10.1709 25.7412 10.1709 26.3574C10.1709 26.9731 10.6692 27.4727 11.2836 27.4727Z" fill="white"/>
<path d="M14.6206 27.4727C15.235 27.4727 15.7333 26.9731 15.7333 26.3574C15.7333 25.7412 15.235 25.2415 14.6206 25.2415C14.0066 25.2415 13.5083 25.7412 13.5083 26.3574C13.5083 26.9731 14.0066 27.4727 14.6206 27.4727Z" fill="white"/>
<path d="M7.94558 27.4727C8.55995 27.4727 9.05827 26.9731 9.05827 26.3574C9.05827 25.7412 8.55995 25.2415 7.94558 25.2415C7.33159 25.2415 6.83325 25.7412 6.83325 26.3574C6.83325 26.9731 7.33159 27.4727 7.94558 27.4727Z" fill="white"/>
<path d="M15.7333 33.0513C15.7333 32.4351 15.235 31.9354 14.6206 31.9354C14.0066 31.9354 13.5083 32.4351 13.5083 33.0513C13.5083 33.667 14.0066 34.1667 14.6206 34.1667C15.235 34.1667 15.7333 33.667 15.7333 33.0513Z" fill="white"/>
<path d="M29.0836 23.0104C29.0836 22.3944 28.5853 21.8945 27.9713 21.8945C27.357 21.8945 26.8586 22.3944 26.8586 23.0104C26.8586 23.6264 27.357 24.1258 27.9713 24.1258C28.5853 24.1258 29.0836 23.6264 29.0836 23.0104Z" fill="white"/>
<path d="M29.0836 26.9148C29.0836 26.2988 28.5853 25.7993 27.9713 25.7993C27.357 25.7993 26.8586 26.2988 26.8586 26.9148C26.8586 27.5308 27.357 28.0307 27.9713 28.0307C28.5853 28.0307 29.0836 27.5308 29.0836 26.9148Z" fill="white"/>
<path d="M19.6269 22.4524C20.2413 22.4524 20.7396 21.9529 20.7396 21.3369C20.7396 20.7209 20.2413 20.221 19.6269 20.221C19.0126 20.221 18.5146 20.7209 18.5146 21.3369C18.5146 21.9529 19.0126 22.4524 19.6269 22.4524Z" fill="white"/>
<path d="M22.6389 19.3365C23.0734 18.9008 23.0734 18.1948 22.6389 17.7586C22.204 17.323 21.5 17.323 21.0656 17.7586C20.6311 18.1948 20.6311 18.9008 21.0656 19.3365C21.5 19.7722 22.204 19.7722 22.6389 19.3365Z" fill="white"/>
<path d="M25.4202 17.1052C25.8546 16.6696 25.8546 15.9635 25.4202 15.5274C24.9854 15.0918 24.2812 15.0918 23.8468 15.5274C23.4124 15.9635 23.4124 16.6696 23.8468 17.1052C24.2812 17.5408 24.9854 17.5408 25.4202 17.1052Z" fill="white"/>
<path d="M18.1889 24.3572C18.6235 23.9214 18.6235 23.2152 18.1889 22.7791C17.7541 22.3435 17.0499 22.3435 16.6154 22.7791C16.1813 23.2152 16.1813 23.9214 16.6154 24.3572C17.0499 24.7925 17.7541 24.7925 18.1889 24.3572Z" fill="white"/>
</g>
<defs>
<clipPath id="clip0_74_1128">
<rect width="41" height="41" fill="white"/>
</clipPath>
</defs>
</svg>
