<svg width="12" height="12" viewBox="0 0 12 12" fill="none" xmlns="http://www.w3.org/2000/svg">
<g clip-path="url(#clip0_29_1037)">
<path d="M11.3797 2.46035L10.8332 1.91379C10.7717 1.85229 10.6882 1.81772 10.6013 1.81772H10.1829C10.1376 1.07475 9.51902 0.484116 8.76484 0.484116H2.99316C2.23898 0.484116 1.62042 1.07475 1.57506 1.81772H1.15672C1.06973 1.81772 0.986327 1.85229 0.92485 1.91379L0.37829 2.46035C0.316769 2.52184 0.282227 2.60525 0.282227 2.69222V4.3319C0.282227 4.51301 0.429054 4.65983 0.610163 4.65983C0.791271 4.65983 0.938099 4.51301 0.938099 4.3319V2.82805L1.29255 2.47359H1.57211V6.42824C2.92989 6.69706 8.86617 6.68952 10.1859 6.42824V2.47359H10.4654L10.8199 2.82805V4.3319C10.8199 4.51301 10.9667 4.65983 11.1478 4.65983C11.3289 4.65983 11.4758 4.51301 11.4758 4.3319V2.69222C11.4758 2.60525 11.4412 2.52184 11.3797 2.46035Z" fill="#173E95"/>
<path d="M1.94385 10.9869V11.12C1.94385 11.4215 2.18893 11.6666 2.49041 11.6666H3.51794C3.81942 11.6666 4.0645 11.4215 4.0645 11.12V10.9998C2.01396 10.9954 2.09586 11.0096 1.94385 10.9869Z" fill="#173E95"/>
<path d="M7.6936 10.9998V11.12C7.6936 11.4215 7.93868 11.6666 8.24016 11.6666H9.2677C9.56918 11.6666 9.81426 11.4215 9.81426 11.12V10.9869C9.66227 11.0096 9.74434 10.9954 7.6936 10.9998Z" fill="#173E95"/>
<path d="M1.57202 7.09412V8.307L3.63937 8.66535C3.75981 8.68622 3.85861 8.77234 3.8958 8.88876L4.36022 10.3439H7.39767L7.8621 8.88876C7.89926 8.77232 7.99808 8.68622 8.11852 8.66535L10.1858 8.307V7.09412C8.60627 7.34628 3.15237 7.34639 1.57202 7.09412ZM6.86272 8.70424H4.89511C4.714 8.70424 4.56717 8.55741 4.56717 8.3763C4.56717 8.19519 4.714 8.04837 4.89511 8.04837H6.86272C7.04383 8.04837 7.19066 8.19519 7.19066 8.3763C7.19066 8.55741 7.04383 8.70424 6.86272 8.70424Z" fill="#173E95"/>
<path d="M8.08618 10.3439H9.63933C9.9407 10.3439 10.1859 10.0987 10.1859 9.79736V8.97264L8.42649 9.2776L8.08618 10.3439Z" fill="#173E95"/>
<path d="M3.67173 10.3439L3.33142 9.2776L1.57202 8.97264V9.79736C1.57202 10.0987 1.81721 10.3439 2.11858 10.3439H3.67173Z" fill="#173E95"/>
</g>
<defs>
<clipPath id="clip0_29_1037">
<rect width="11.1935" height="11.1935" fill="white" transform="translate(0.282227 0.478516)"/>
</clipPath>
</defs>
</svg>
