<svg width="14" height="14" viewBox="0 0 14 14" fill="none" xmlns="http://www.w3.org/2000/svg">
<path d="M4.7599 13.7097C4.6135 13.7098 4.46915 13.6753 4.33863 13.609C4.20811 13.5428 4.09512 13.4465 4.00889 13.3282L2.8786 11.7787C2.85156 11.7415 2.81894 11.7087 2.78188 11.6814L1.12264 10.4598C1.01448 10.3803 0.924778 10.2784 0.859693 10.161C0.794607 10.0436 0.755674 9.91357 0.745565 9.77973C0.735455 9.64589 0.754406 9.51145 0.80112 9.38562C0.847834 9.25979 0.921206 9.14555 1.0162 9.05073C1.15423 8.91163 1.33122 8.81769 1.52377 8.78132C1.71632 8.74496 1.91538 8.76787 2.09463 8.84704L3.35135 9.39598L5.9064 6.64318C5.92295 6.62534 5.93531 6.60403 5.94256 6.5808C5.94981 6.55757 5.95177 6.53301 5.9483 6.50892C5.94483 6.48483 5.93601 6.46183 5.9225 6.44159C5.90898 6.42135 5.89111 6.40439 5.8702 6.39195L1.47383 4.0649C1.19612 3.89795 1.02701 3.63699 0.990811 3.33821C0.972255 3.19138 0.987642 3.04226 1.03579 2.90231C1.08394 2.76237 1.16356 2.63534 1.26852 2.53101C1.37035 2.42812 1.49667 2.35282 1.6356 2.31218C1.77454 2.27154 1.92153 2.2669 2.06275 2.29869L8.48738 3.65914C8.51541 3.66562 8.54464 3.66469 8.57221 3.65645C8.59978 3.64821 8.62472 3.63294 8.6446 3.61214L10.949 1.16461C11.1953 0.90365 11.6103 0.750207 12.0879 0.743183C12.5763 0.733998 13.0366 0.889602 13.3008 1.15435C13.5645 1.41801 13.718 1.87186 13.7109 2.3673C13.7039 2.84492 13.551 3.25987 13.2906 3.50624L10.836 5.81924C10.8147 5.83902 10.799 5.86407 10.7905 5.89186C10.7819 5.91966 10.7809 5.94921 10.7874 5.97754L12.2651 12.4762C12.299 12.6192 12.2955 12.7686 12.2551 12.9099C12.2148 13.0512 12.1387 13.1798 12.0344 13.2834C11.9305 13.3876 11.8043 13.4669 11.6653 13.5152C11.5263 13.5635 11.3782 13.5795 11.2321 13.5622C11.0859 13.5454 10.9454 13.4955 10.8214 13.4163C10.6973 13.3371 10.5929 13.2307 10.5162 13.1051L8.05784 8.56122C8.03407 8.5234 7.98058 8.50827 7.95195 8.50449C7.92814 8.50127 7.90391 8.50338 7.88102 8.51066C7.85812 8.51795 7.83714 8.53024 7.81957 8.54664L5.07164 11.1011L5.62058 12.3584C5.69972 12.5378 5.72262 12.7369 5.68625 12.9295C5.64989 13.1221 5.55597 13.2992 5.41689 13.4374C5.33066 13.5237 5.22824 13.5922 5.11551 13.6389C5.00277 13.6857 4.88193 13.7097 4.7599 13.7097Z" fill="white"/>
</svg>
