<svg width="12" height="12" viewBox="0 0 12 12" fill="none" xmlns="http://www.w3.org/2000/svg">
<g clip-path="url(#clip0_29_1032)">
<path d="M10.214 8.55916C10.1615 8.50669 10.0916 8.4892 10.0391 8.4892C9.98663 8.4892 9.89918 8.50669 9.8642 8.55916L9.74177 8.68159L9.81173 9.3637L10.214 8.94394C10.3189 8.839 10.3189 8.6641 10.214 8.55916ZM9.60185 10.7279L9.19958 7.35236V7.33487L9.07715 6.21551L8.91974 5.14863C8.90225 4.99122 8.72736 4.93875 8.60493 5.04369L6.71601 6.77519C6.64605 6.84515 6.62856 6.9326 6.68103 7.02005C7.41561 8.15689 8.43003 10.0283 9.05966 11.5499C9.07715 11.5674 9.07715 11.5849 9.09464 11.6024C9.14711 11.6549 9.23456 11.6724 9.30452 11.6024C9.53189 11.375 9.63683 11.0602 9.60185 10.7279ZM4.75714 10.8503L4.28492 9.22378C4.24994 9.11884 4.12751 9.06637 4.02257 9.10135C3.84767 9.1888 3.63779 9.25876 3.42791 9.29374C3.30548 9.31123 3.23552 9.46864 3.30548 9.57358L4.3199 11.0952C4.38985 11.2001 4.52977 11.2001 4.59973 11.1302L4.68718 11.0427C4.75714 10.9728 4.77463 10.9028 4.75714 10.8503ZM3.39293 8.22685C3.37544 8.20936 3.34046 8.19187 3.30548 8.19187C3.2705 8.19187 3.23552 8.20936 3.21803 8.22685L2.16864 9.29374C2.11617 9.34621 2.11617 9.41617 2.16864 9.45115C2.20362 9.50362 2.29106 9.50362 2.32604 9.45115L3.39293 8.38426C3.4454 8.34928 3.4454 8.26183 3.39293 8.22685ZM2.41349 7.38734L0.891871 7.02005C0.821912 7.00256 0.769442 7.02005 0.716972 7.07252L0.612033 7.17746C0.524583 7.26491 0.542073 7.40483 0.629523 7.4573L2.02872 8.40175C2.15115 8.47171 2.29106 8.41924 2.32604 8.27932C2.36102 8.06944 2.44847 7.84207 2.53592 7.64969C2.58839 7.54475 2.53592 7.42232 2.41349 7.38734ZM6.48865 2.89243L5.47423 2.73502L4.35488 2.61259L0.979321 2.21032C0.664502 2.17534 0.349684 2.28028 0.122315 2.50765C0.0523551 2.57761 0.0698451 2.66506 0.122315 2.71753C0.139805 2.73502 0.139805 2.73502 0.174785 2.75251C1.59147 3.32968 3.41042 4.34409 4.59973 5.11365C4.66969 5.16612 4.77463 5.14863 4.8271 5.07867L6.59358 3.20725C6.69852 3.10231 6.62856 2.92741 6.48865 2.89243ZM3.14807 1.58068C3.04313 1.47574 2.86823 1.47574 2.76329 1.58068L2.34353 1.98295L3.00815 2.05291L3.13058 1.93048C3.18305 1.87801 3.20054 1.80805 3.20054 1.75558C3.21803 1.70311 3.20054 1.63315 3.14807 1.58068ZM5.49172 1.93048C5.38678 1.82554 5.21188 1.82554 5.10694 1.93048L4.75714 2.26279L5.42176 2.33275L5.47423 2.28028C5.59666 2.19283 5.59666 2.03542 5.49172 1.93048ZM11.1235 0.653719C10.7387 0.268941 9.47942 0.741168 8.84978 1.35332L3.0956 7.4573C2.97317 7.57973 2.81576 7.87705 2.7458 8.19187L2.97317 7.9645C3.16556 7.77211 3.48038 7.77211 3.67277 7.9645C3.86516 8.15689 3.86516 8.47171 3.67277 8.6641L3.39293 8.90896C3.72524 8.839 4.05755 8.6641 4.19747 8.54167L10.4064 2.87494C10.8786 2.4202 11.2634 1.61566 11.2634 1.07348C11.2634 0.881088 11.2109 0.741168 11.1235 0.653719ZM10.3189 2.15785C10.3014 2.15785 10.3014 2.15785 10.3189 2.15785C10.214 2.15785 10.1265 2.08789 10.1091 2.00044C10.0916 1.93048 10.0391 1.7206 9.77675 1.70311H9.72428C9.61934 1.70311 9.53189 1.61566 9.54938 1.51072C9.56687 1.40579 9.63683 1.31834 9.74177 1.31834H9.79424C10.1615 1.33583 10.4239 1.58068 10.4763 1.94797C10.4938 2.05291 10.4064 2.14036 10.3189 2.15785ZM9.88169 6.21551C9.82922 6.16304 9.75926 6.14555 9.70679 6.14555C9.65432 6.14555 9.56687 6.18053 9.53189 6.21551L9.47942 6.26798L9.54938 6.9326L9.88169 6.5828C9.96914 6.49535 9.96914 6.32045 9.88169 6.21551Z" fill="#173E95"/>
</g>
<defs>
<clipPath id="clip0_29_1032">
<rect width="11.1935" height="11.1935" fill="white" transform="translate(0.0698242 0.478516)"/>
</clipPath>
</defs>
</svg>
