<svg width="17" height="17" viewBox="0 0 17 17" fill="none" xmlns="http://www.w3.org/2000/svg">
<path d="M5.26558 16.75H5.26589C5.39299 16.75 5.51885 16.725 5.63627 16.6763C5.75369 16.6276 5.86036 16.5563 5.95018 16.4663L5.95089 16.4656C6.09733 16.3202 6.19623 16.1337 6.23453 15.9308C6.27282 15.7279 6.24871 15.5182 6.16538 15.3294L6.16498 15.3285L5.44538 13.6802C5.4029 13.5828 5.42652 13.4693 5.50428 13.397L9.10613 10.0484L5.26558 16.75ZM5.26558 16.75C5.11311 16.7502 4.96277 16.7142 4.82682 16.6452C4.69088 16.5761 4.57319 16.4759 4.48337 16.3527L4.48333 16.3526M5.26558 16.75L4.48333 16.3526M4.48333 16.3526L3.0019 14.3214L4.48333 16.3526ZM0.645812 12.5379L0.646008 12.538L2.82095 14.1395C2.89016 14.1903 2.9511 14.2516 3.00163 14.3211L0.645812 12.5379ZM0.645812 12.5379C0.533068 12.455 0.439567 12.3488 0.371723 12.2264C0.303878 12.104 0.263295 11.9684 0.252757 11.8289C0.242218 11.6894 0.261974 11.5492 0.310668 11.418C0.359362 11.2868 0.435844 11.1677 0.534869 11.0689L0.535714 11.0681M0.645812 12.5379L0.535714 11.0681M0.535714 11.0681C0.681015 10.9216 0.867323 10.8227 1.07002 10.7844C1.27271 10.7461 1.48224 10.7703 1.67094 10.8536L1.67187 10.854M0.535714 11.0681L1.67187 10.854M1.67187 10.854L3.3193 11.5737C3.41669 11.6162 3.53033 11.5926 3.60262 11.5147M1.67187 10.854L3.60262 11.5147M3.60262 11.5147L6.95202 7.90566L6.95203 7.90565M3.60262 11.5147L6.95203 7.90565M6.95203 7.90565C6.9991 7.85493 7.03422 7.79432 7.05483 7.72828C7.07544 7.66223 7.08101 7.59241 7.07115 7.52393L6.8237 7.55957M6.95203 7.90565L6.8237 7.55957M6.8237 7.55957L7.07115 7.52392C7.06128 7.45545 7.03622 7.39004 6.9978 7.33249C6.95939 7.27494 6.90858 7.22672 6.84912 7.19135L6.84927 7.19108M6.8237 7.55957L6.84927 7.19108M6.84927 7.19108L6.83829 7.18527L1.0814 4.13777M6.84927 7.19108L1.0814 4.13777M1.0814 4.13777C0.784082 3.95692 0.610719 3.68277 0.573145 3.3726L0.573148 3.3726L0.572987 3.37133C0.553457 3.21678 0.569652 3.05982 0.620323 2.91252C0.670995 2.76522 0.754791 2.63152 0.865258 2.52171L0.865263 2.52172L0.866708 2.52026C0.970374 2.4155 1.09897 2.33883 1.24041 2.29745C1.38185 2.25608 1.53148 2.25135 1.67525 2.28372L1.67837 2.2844L10.0986 4.06762C10.1768 4.0852 10.2582 4.08238 10.335 4.05941C10.4127 4.03618 10.483 3.99315 10.539 3.93454L10.5403 3.93316L13.5608 0.724625L1.0814 4.13777ZM14.8768 0.250461L14.8757 0.25048C14.2941 0.259033 13.8239 0.446161 13.5611 0.724374L14.8768 0.250461ZM14.8768 0.250461C15.4711 0.239282 16.0005 0.430887 16.2852 0.71614L16.2853 0.71632M14.8768 0.250461L16.2853 0.71632M16.2853 0.71632C16.569 1.00005 16.7583 1.52106 16.7497 2.1261L16.2853 0.71632ZM14.8019 16.4411C14.9387 16.3054 15.0384 16.1368 15.0913 15.9515C15.1443 15.7662 15.1488 15.5704 15.1044 15.3829L14.8019 16.4411ZM14.8019 16.4411C14.6658 16.5778 14.5003 16.6817 14.3181 16.745C14.1359 16.8083 13.9417 16.8294 13.7502 16.8066L14.8019 16.4411ZM13.1713 6.75059L12.9323 6.67719C12.9082 6.75555 12.9052 6.83885 12.9236 6.91872L12.9235 6.91835L13.1673 6.86292L12.9236 6.91907L13.1713 6.75059ZM13.1713 6.75059L12.9323 6.67719C12.9563 6.59907 13.0004 6.52863 13.0601 6.4729C13.0604 6.47265 13.0606 6.4724 13.0609 6.47216L16.2768 3.44137C16.2769 3.44134 16.2769 3.4413 16.2769 3.44127C16.5545 3.17857 16.7411 2.7083 16.7497 2.12624L13.1713 6.75059ZM9.80076 10.1172C9.80365 10.1218 9.8064 10.1265 9.80898 10.1313L13.0283 16.0823L9.80076 10.1172ZM9.80076 10.1172C9.74911 10.035 9.67515 9.99107 9.62484 9.96838M9.80076 10.1172L9.62484 9.96838M9.62484 9.96838C9.57245 9.94476 9.52116 9.93303 9.48301 9.92799M9.62484 9.96838L9.48301 9.92799M9.48301 9.92799L9.45028 10.1758L9.48301 9.92799Z" stroke="#FFBB02" stroke-width="0.5" stroke-linejoin="round"/>
</svg>
