<svg width="15" height="15" viewBox="0 0 15 15" fill="none" xmlns="http://www.w3.org/2000/svg">
<path d="M14.1958 9.36586C14.1933 8.51624 13.9908 7.71832 13.5988 6.96489C12.8586 5.54321 12.2814 4.05839 11.9037 2.49729C11.8628 2.32822 11.827 2.15829 11.7873 1.98879C11.6818 1.53919 11.2928 1.27774 10.8721 1.37266C10.4471 1.46885 10.2113 1.88413 10.3214 2.3422C10.6248 3.60243 10.9282 4.86267 11.2307 6.1229C11.2881 6.36147 11.1982 6.57546 10.9965 6.69157C10.8033 6.80302 10.602 6.77378 10.418 6.6064C10.3792 6.5708 10.3429 6.53224 10.3058 6.49495C8.54876 4.73088 6.79215 2.96638 5.03511 1.20231C4.73341 0.899756 4.35491 0.890857 4.09246 1.17731C3.88021 1.4091 3.87388 1.74556 4.07896 1.98498C4.11989 2.03286 4.16588 2.07693 4.21061 2.12185C5.27479 3.19097 6.33854 4.26094 7.40483 5.32837C7.55505 5.47837 7.63058 5.64745 7.57319 5.85678C7.47276 6.2229 7.03308 6.3352 6.75501 6.06145C6.32293 5.63601 5.89759 5.20294 5.46931 4.77325C4.55366 3.85372 3.63843 2.93376 2.72194 2.01507C2.44809 1.74048 2.0814 1.72946 1.82316 1.98328C1.56704 2.23499 1.56239 2.6062 1.82316 2.87358C2.162 3.22106 2.50842 3.56091 2.85148 3.90414C3.8511 4.90377 4.84987 5.90424 5.85076 6.90302C5.98621 7.0382 6.06722 7.19117 6.02798 7.38483C5.99085 7.56873 5.88283 7.70221 5.70054 7.7573C5.50939 7.81493 5.33597 7.77298 5.19208 7.63018C4.91907 7.35855 4.64733 7.08566 4.37517 6.81319C3.40171 5.83941 2.4291 4.86521 1.4548 3.89228C1.2147 3.65244 0.920596 3.60879 0.667421 3.76685C0.309178 3.99101 0.260232 4.44442 0.568684 4.7563C1.09908 5.29277 1.63497 5.82373 2.16833 6.35723C3.02617 7.21533 3.88359 8.07384 4.74101 8.93194C4.89798 9.08872 4.94945 9.27306 4.86802 9.48196C4.79417 9.67223 4.64564 9.77266 4.44395 9.78622C4.27474 9.79766 4.14309 9.72011 4.02537 9.60231C3.21014 8.78362 2.39365 7.96663 1.5759 7.15049C1.32525 6.90006 0.999502 6.86234 0.748859 7.04837C0.442517 7.27592 0.415511 7.70137 0.698223 7.98909C1.12356 8.42174 1.55522 8.84761 1.98393 9.27729C3.18356 10.4799 4.38487 11.6808 5.58197 12.8859C6.35204 13.6614 7.26938 14.1517 8.34369 14.3373C10.8429 14.7687 13.3072 13.208 14.0021 10.757C14.1308 10.3028 14.2005 9.83961 14.1958 9.36586Z" fill="#FFBB02" fill-opacity="0.3"/>
</svg>
