<svg width="27" height="27" viewBox="0 0 27 27" fill="none" xmlns="http://www.w3.org/2000/svg">
<rect width="26.9714" height="26.9714" rx="10" fill="#FFBB02"/>
<path fill-rule="evenodd" clip-rule="evenodd" d="M13.1956 17.6979C13.1956 17.6979 17.6871 11.1537 17.6871 8.67337C17.6871 6.19266 15.6763 4.18188 13.1956 4.18188C10.7149 4.18188 8.7041 6.19349 8.7041 8.67337C8.7041 11.1532 13.1956 17.6979 13.1956 17.6979ZM14.6881 6.98228C15.5125 7.80667 15.5125 9.14328 14.6881 9.96768C13.8637 10.7921 12.5271 10.7921 11.7027 9.96768C10.8783 9.14328 10.8783 7.80667 11.7027 6.98228C12.5271 6.15788 13.8637 6.15788 14.6881 6.98228Z" fill="white"/>
<path fill-rule="evenodd" clip-rule="evenodd" d="M13.0651 19.1165C14.2821 19.1165 15.2686 18.678 15.2686 18.1371C15.2686 17.8675 15.0235 17.6234 14.6269 17.4463C15.3814 17.6556 15.8809 18.0206 15.8809 18.4357C15.8809 19.0854 14.6578 19.612 13.149 19.612C11.6401 19.612 10.417 19.0854 10.417 18.4357C10.417 18.1113 10.7221 17.8175 11.2154 17.6047C10.9916 17.758 10.8617 17.9408 10.8617 18.1371C10.8617 18.678 11.8482 19.1165 13.0651 19.1165Z" fill="white"/>
<path fill-rule="evenodd" clip-rule="evenodd" d="M13.1095 21.0752C15.1377 21.0752 16.782 20.4175 16.782 19.6062C16.782 19.4026 16.6785 19.2087 16.4913 19.0325C17.0837 19.3467 17.4387 19.7473 17.4387 20.1836C17.4387 21.1931 15.5379 22.0115 13.1931 22.0115C10.8483 22.0115 8.94751 21.1931 8.94751 20.1836C8.94751 19.8406 9.16694 19.5196 9.54865 19.2454C9.47577 19.3608 9.43705 19.4817 9.43705 19.6062C9.43705 20.4175 11.0813 21.0752 13.1095 21.0752Z" fill="white"/>
</svg>
