<svg width="8" height="15" viewBox="0 0 8 15" fill="none" xmlns="http://www.w3.org/2000/svg">
<path fill-rule="evenodd" clip-rule="evenodd" d="M3.61072 10.8656C3.61072 10.8656 7.22144 5.60464 7.22144 3.61072C7.22144 1.61647 5.60497 0 3.61072 0C1.61647 0 0 1.61713 0 3.61072C0 5.6043 3.61072 10.8656 3.61072 10.8656ZM4.81067 2.25127C5.47341 2.914 5.47341 3.98851 4.81067 4.65124C4.14794 5.31398 3.07343 5.31398 2.4107 4.65124C1.74796 3.98851 1.74796 2.914 2.4107 2.25127C3.07343 1.58853 4.14794 1.58853 4.81067 2.25127Z" fill="#173E95"/>
<path fill-rule="evenodd" clip-rule="evenodd" d="M3.50599 12.0061C4.48429 12.0061 5.27737 11.6536 5.27737 11.2188C5.27737 11.0021 5.08028 10.8058 4.76141 10.6634C5.368 10.8317 5.76967 11.1251 5.76967 11.4589C5.76967 11.9811 4.78638 12.4045 3.57343 12.4045C2.36049 12.4045 1.3772 11.9811 1.3772 11.4589C1.3772 11.1981 1.62235 10.962 2.01884 10.7909C1.83903 10.9141 1.73461 11.0611 1.73461 11.2188C1.73461 11.6536 2.52768 12.0061 3.50599 12.0061Z" fill="#173E95"/>
<path fill-rule="evenodd" clip-rule="evenodd" d="M3.54178 13.5805C5.17229 13.5805 6.49408 13.0518 6.49408 12.3996C6.49408 12.236 6.41092 12.0802 6.2606 11.9385C6.73665 12.1911 7.0219 12.5131 7.0219 12.8638C7.0219 13.6753 5.49383 14.3333 3.60885 14.3333C1.72388 14.3333 0.195801 13.6753 0.195801 12.8638C0.195801 12.5879 0.372296 12.3299 0.679312 12.1093C0.620645 12.2022 0.589478 12.2994 0.589478 12.3996C0.589478 13.0518 1.91127 13.5805 3.54178 13.5805Z" fill="#173E95"/>
</svg>
