<svg width="17" height="17" viewBox="0 0 17 17" fill="none" xmlns="http://www.w3.org/2000/svg">
<path fill-rule="evenodd" clip-rule="evenodd" d="M14.2606 14.3564H13.4931V15.5821C13.4935 15.6971 13.4715 15.811 13.4285 15.9174C13.3854 16.0238 13.3222 16.1206 13.2423 16.2021C13.1625 16.2837 13.0676 16.3485 12.9631 16.3928C12.8586 16.4371 12.7465 16.4601 12.6332 16.4605H12.1267C11.8989 16.4594 11.6808 16.3671 11.5197 16.2036C11.3587 16.04 11.2678 15.8185 11.2668 15.5872V14.3615H6.06941V15.5872C6.0684 15.8192 5.97696 16.0413 5.8151 16.2049C5.65323 16.3686 5.43412 16.4605 5.20571 16.4605H4.69915C4.47151 16.4594 4.25351 16.3671 4.09266 16.2035C3.93182 16.0399 3.84118 15.8184 3.84052 15.5872V14.3615H3.19211C2.7438 14.3538 2.52851 14.1043 2.49559 13.6812V3.66629C2.2423 3.69202 2.12199 3.75118 2.0612 3.88236V6.74394H1.51665C1.35318 6.7436 1.1965 6.67751 1.08091 6.56012C0.965323 6.44273 0.900237 6.28362 0.899902 6.11761L0.899902 4.42767C0.900472 4.26482 0.96322 4.10855 1.07494 3.99173C1.18666 3.87492 1.33865 3.80666 1.49892 3.80134C1.55084 3.31004 1.7598 3.16729 2.51205 3.13128C2.61927 2.27387 3.19465 1.63982 4.23817 1.22913C6.48353 0.811143 10.7437 0.769987 13.1233 1.22913C14.1719 1.63939 14.7443 2.27344 14.8482 3.13128C15.608 3.16986 15.8119 3.3139 15.8613 3.80134C16.0216 3.80666 16.1736 3.87492 16.2853 3.99173C16.397 4.10855 16.4598 4.26482 16.4603 4.42767V6.11761C16.46 6.28362 16.3949 6.44273 16.2793 6.56012C16.1637 6.67751 16.0071 6.7436 15.8436 6.74394H15.299V3.87464C15.2383 3.74603 15.1129 3.68944 14.8647 3.66501V13.5783C14.8647 14.1519 14.6823 14.35 14.2593 14.35L14.2606 14.3564ZM2.94263 11.8138L2.97809 10.9534C2.99835 10.8029 3.07687 10.736 3.21744 10.7604C3.92724 11.1452 4.60829 11.5824 5.2551 12.0684C5.39314 12.161 5.33869 12.3398 5.15632 12.3063L3.24024 12.1649C3.15723 12.1528 3.08135 12.1105 3.02664 12.046C2.97192 11.9814 2.94208 11.8989 2.94263 11.8138ZM7.48526 12.9172H9.92944C9.96101 12.9172 9.99129 12.93 10.0136 12.9527C10.0359 12.9753 10.0485 13.0061 10.0485 13.0381V13.4548C10.0485 13.4869 10.0359 13.5176 10.0136 13.5403C9.99129 13.563 9.96101 13.5757 9.92944 13.5757H7.48526C7.45369 13.5757 7.42341 13.563 7.40108 13.5403C7.37876 13.5176 7.36622 13.4869 7.36622 13.4548V13.0381C7.36622 13.0061 7.37876 12.9753 7.40108 12.9527C7.42341 12.93 7.45369 12.9172 7.48526 12.9172ZM13.8617 12.9172C13.9242 12.9178 13.9852 12.937 14.037 12.9726C14.0889 13.0081 14.1292 13.0584 14.153 13.1171C14.1768 13.1759 14.183 13.2404 14.1709 13.3027C14.1588 13.365 14.1288 13.4223 14.0847 13.4674C14.0407 13.5125 13.9845 13.5434 13.9233 13.5562C13.862 13.569 13.7984 13.5632 13.7404 13.5395C13.6824 13.5158 13.6325 13.4752 13.5971 13.4229C13.5617 13.3705 13.5423 13.3087 13.5413 13.2452C13.5413 13.1598 13.5746 13.0779 13.6339 13.0174C13.6932 12.9569 13.7738 12.9227 13.8579 12.9224L13.8617 12.9172ZM3.39474 12.9172C3.45722 12.918 3.5181 12.9375 3.56976 12.9732C3.62142 13.0089 3.66156 13.0593 3.68518 13.118C3.70881 13.1768 3.71485 13.2413 3.70257 13.3035C3.69028 13.3657 3.66021 13.4229 3.61611 13.4678C3.57201 13.5128 3.51584 13.5436 3.45462 13.5563C3.3934 13.569 3.32984 13.5631 3.2719 13.5394C3.21396 13.5156 3.16419 13.475 3.12883 13.4227C3.09346 13.3704 3.07407 13.3087 3.07307 13.2452C3.07307 13.1596 3.10656 13.0775 3.16617 13.0169C3.22578 12.9564 3.30664 12.9224 3.39094 12.9224L3.39474 12.9172ZM14.4227 11.8073L14.3872 10.9469C14.367 10.7965 14.2884 10.7296 14.1491 10.754C13.4388 11.1385 12.7573 11.5757 12.1102 12.062C11.9722 12.1546 12.0266 12.3334 12.209 12.2999L14.1251 12.1584C14.2082 12.1466 14.2842 12.1044 14.339 12.0398C14.3937 11.9752 14.4235 11.8926 14.4227 11.8073ZM7.00276 1.68441H10.3588C10.4131 1.68474 10.4651 1.7068 10.5035 1.7458C10.5419 1.7848 10.5636 1.8376 10.5639 1.89276V2.44192C10.5636 2.49708 10.5419 2.54988 10.5035 2.58888C10.4651 2.62788 10.4131 2.64993 10.3588 2.65027H7.00276C6.94845 2.64993 6.89646 2.62788 6.85805 2.58888C6.81965 2.54988 6.79793 2.49708 6.7976 2.44192V1.89276C6.79793 1.8376 6.81965 1.7848 6.85805 1.7458C6.89646 1.7068 6.94845 1.68474 7.00276 1.68441ZM3.47326 3.33062H13.8427C13.9098 3.33062 13.9743 3.35772 14.0218 3.40596C14.0693 3.4542 14.0959 3.51962 14.0959 3.58784V9.14124C14.0959 9.28014 13.9832 9.35859 13.8427 9.39846C10.2853 10.4955 7.02935 10.4505 3.47326 9.39846C3.33269 9.35988 3.21997 9.28271 3.21997 9.14124V3.58527C3.21997 3.51705 3.24666 3.45163 3.29416 3.40339C3.34166 3.35515 3.40608 3.32805 3.47326 3.32805V3.33062Z" fill="white"/>
</svg>
