<svg width="9" height="12" viewBox="0 0 9 12" fill="none" xmlns="http://www.w3.org/2000/svg">
<path d="M5.94039 1.15535L5.43737 1.64741L5.5563 2.34235C5.57552 2.45569 5.48872 2.5604 5.3723 2.5604C5.30913 2.5604 5.34194 2.56881 4.66407 2.21106L4.04282 2.53894C3.9064 2.61095 3.746 2.49491 3.77184 2.34235L3.89077 1.64741L3.38775 1.15535C3.27703 1.04715 3.33906 0.859511 3.4913 0.837263L4.18577 0.736054L4.49663 0.104075C4.56496 -0.0345868 4.76309 -0.0347967 4.83151 0.104075L5.14237 0.736054L5.83684 0.837263C5.98936 0.859557 6.05088 1.04738 5.94039 1.15535ZM2.71741 2.11011L2.69538 1.98161C2.78164 1.89752 2.8783 1.82975 2.83593 1.69937C2.79358 1.56905 2.67467 1.57085 2.55632 1.55364L2.49862 1.43673C2.43034 1.29835 2.23238 1.29826 2.16402 1.43673L2.10633 1.55364C1.98712 1.57096 1.86907 1.56896 1.82672 1.69937C1.78437 1.82968 1.88164 1.89812 1.96727 1.98161L1.94523 2.11011C1.91916 2.26218 2.07923 2.37861 2.21594 2.30676L2.3313 2.24609C2.44942 2.30821 2.47519 2.3282 2.53346 2.3282C2.64857 2.3282 2.73705 2.22451 2.71741 2.11011ZM1.085 3.04291L1.06296 2.91442C1.14922 2.83033 1.24588 2.76256 1.20351 2.63217C1.16116 2.50186 1.04225 2.50366 0.923901 2.48645L0.866207 2.36954C0.797925 2.23116 0.59996 2.23107 0.531608 2.36954L0.473914 2.48645C0.354701 2.50377 0.236654 2.50177 0.194304 2.63217C0.151955 2.76249 0.249223 2.83093 0.334855 2.91442L0.312818 3.04291C0.286746 3.19499 0.446816 3.31142 0.583519 3.23957L0.698884 3.17889C0.817001 3.24102 0.84277 3.261 0.901047 3.261C1.01616 3.261 1.10463 3.15732 1.085 3.04291ZM7.38284 2.11011L7.3608 1.98161C7.44706 1.89752 7.54372 1.82975 7.50135 1.69937C7.459 1.56905 7.34009 1.57085 7.22174 1.55364C7.16841 1.44555 7.13387 1.33275 6.99677 1.33275C6.85976 1.33275 6.82471 1.44639 6.77178 1.55364L6.64277 1.57239C6.49007 1.59459 6.4288 1.78283 6.53937 1.89061L6.63272 1.98161C6.61234 2.1004 6.57397 2.21199 6.68491 2.29256C6.79575 2.37311 6.8909 2.30175 6.99677 2.24609C7.11489 2.30821 7.14066 2.3282 7.19893 2.3282C7.31399 2.3282 7.40245 2.22451 7.38284 2.11011ZM9.01525 3.04291L8.99321 2.91442C9.07948 2.83033 9.17614 2.76256 9.13377 2.63217C9.09142 2.50186 8.97251 2.50366 8.85416 2.48645C8.80082 2.37836 8.76628 2.26556 8.62919 2.26556C8.49218 2.26556 8.45713 2.3792 8.40419 2.48645L8.27518 2.5052C8.12248 2.5274 8.06122 2.71564 8.17178 2.82342L8.26513 2.91442C8.24475 3.03321 8.20639 3.1448 8.31732 3.22537C8.42817 3.30592 8.52331 3.23456 8.62919 3.17889C8.7473 3.24102 8.77307 3.261 8.83135 3.261C8.94641 3.261 9.03486 3.15732 9.01525 3.04291ZM1.91599 11.0017C1.91919 11.1067 1.83465 11.1935 1.7295 11.1935H0.746247C0.334109 11.1935 0 10.8594 0 10.4473V6.71606C0 6.30392 0.334109 5.96981 0.746247 5.96981H1.7257C1.82873 5.96981 1.91226 6.05353 1.91226 6.15656C1.91205 9.66999 1.90617 10.6798 1.91599 11.0017ZM1.28261 7.83543C1.28261 7.7324 1.19908 7.64887 1.09605 7.64887C0.993022 7.64887 0.909489 7.7324 0.909489 7.83543V8.62832C0.909489 8.73135 0.993022 8.81488 1.09605 8.81488C1.19908 8.81488 1.28261 8.73135 1.28261 8.62832V7.83543ZM9.32809 6.71606V10.4473C9.32809 10.8594 8.99398 11.1935 8.58185 11.1935H7.59876C7.49363 11.1935 7.40905 11.1067 7.41227 11.0016C7.42213 10.6803 7.41604 9.67202 7.41583 6.15656C7.41583 6.05353 7.49937 5.96981 7.6024 5.96981H8.58185C8.99401 5.96981 9.32809 6.30392 9.32809 6.71606ZM8.4186 7.83543C8.4186 7.7324 8.33507 7.64887 8.23204 7.64887C8.12901 7.64887 8.04548 7.7324 8.04548 7.83543V8.62832C8.04548 8.73135 8.12901 8.81488 8.23204 8.81488C8.33507 8.81488 8.4186 8.73135 8.4186 8.62832V7.83543ZM4.19764 11.1935H5.13045C5.23348 11.1935 5.31701 11.11 5.31701 11.007V9.25797C5.31701 9.15494 5.23348 9.0714 5.13045 9.0714H4.19764C4.09461 9.0714 4.01108 9.15494 4.01108 9.25797V11.007C4.01108 11.11 4.09461 11.1935 4.19764 11.1935ZM7.04271 4.05755V11.007C7.04271 11.11 6.95918 11.1935 6.85615 11.1935H5.8767C5.77367 11.1935 5.69014 11.11 5.69014 11.007V8.88484C5.69014 8.78181 5.6066 8.69828 5.50357 8.69828H3.82452C3.72149 8.69828 3.63796 8.78181 3.63796 8.88484V11.007C3.63796 11.11 3.55442 11.1935 3.45139 11.1935H2.47194C2.36892 11.1935 2.28538 11.11 2.28538 11.007V4.05755C2.28538 3.64542 2.61949 3.31131 3.03163 3.31131H6.29646C6.70862 3.31131 7.04271 3.64542 7.04271 4.05755ZM5.59686 7.18247C5.59686 7.07944 5.51332 6.9959 5.41029 6.9959H3.9178C3.81477 6.9959 3.73124 7.07944 3.73124 7.18247C3.73124 7.28549 3.81477 7.36903 3.9178 7.36903H5.41029C5.51335 7.36903 5.59686 7.28549 5.59686 7.18247ZM5.92334 5.38681C5.92334 5.28378 5.83981 5.20025 5.73678 5.20025H3.59132C3.48829 5.20025 3.40475 5.28378 3.40475 5.38681C3.40475 5.48984 3.48829 5.57337 3.59132 5.57337H5.73678C5.83983 5.57337 5.92334 5.48984 5.92334 5.38681Z" fill="#173E95"/>
</svg>
