<svg width="47" height="28" viewBox="0 0 47 28" fill="none" xmlns="http://www.w3.org/2000/svg">
<mask id="mask0_49_2760" style="mask-type:luminance" maskUnits="userSpaceOnUse" x="0" y="0" width="47" height="28">
<path d="M43.2073 0H3.79268C1.69804 0 0 1.69804 0 3.79268V23.6229C0 25.7175 1.69804 27.4156 3.79268 27.4156H43.2073C45.302 27.4156 47 25.7175 47 23.6229V3.79268C47 1.69804 45.302 0 43.2073 0Z" fill="white"/>
</mask>
<g mask="url(#mask0_49_2760)">
<path d="M47 0H0V27.4156H47V0Z" fill="white"/>
<path d="M47 0H0V9.13963H47V0Z" fill="#F0953E"/>
<path d="M47 18.2826H0V27.4189H47V18.2826Z" fill="#3B8916"/>
<mask id="mask1_49_2760" style="mask-type:luminance" maskUnits="userSpaceOnUse" x="0" y="0" width="47" height="28">
<path d="M47 0H0V27.4156H47V0Z" fill="white"/>
</mask>
<g mask="url(#mask1_49_2760)">
<path d="M23.5001 9.60126C21.2285 9.60126 19.3853 11.4378 19.3853 13.7094C19.3853 15.9811 21.2285 17.8243 23.5001 17.8243C25.7717 17.8243 27.6149 15.9811 27.6149 13.7094C27.6149 11.4378 25.7717 9.60126 23.5001 9.60126ZM23.4968 9.99979L23.3938 12.0688L23.5067 13.2445L23.6097 12.0688L23.5067 9.99979C23.6163 9.99979 23.7193 10.0064 23.8255 10.0164C23.8255 10.023 23.8189 10.023 23.8189 10.0264C23.8189 10.126 23.8953 10.2057 23.9883 10.2057C24.0746 10.2057 24.1477 10.136 24.1543 10.0529C24.2573 10.0762 24.3569 10.0928 24.4566 10.1227L23.8222 12.0921L23.6196 13.2578L24.0315 12.1419L24.4698 10.1227C24.5695 10.1559 24.6658 10.1824 24.7654 10.2223C24.7588 10.2389 24.7521 10.2622 24.7521 10.2821C24.7521 10.3751 24.8285 10.4515 24.9248 10.4515C24.9912 10.4515 25.0577 10.4083 25.0809 10.3485C25.1739 10.3917 25.2636 10.4415 25.3566 10.4946L24.2307 12.2216L23.7326 13.3043L24.42 12.3345L25.3632 10.498C25.4496 10.5478 25.5359 10.6009 25.6223 10.6574C25.599 10.6906 25.5824 10.7238 25.5824 10.767C25.5824 10.8599 25.6588 10.9363 25.7551 10.9363C25.8082 10.9363 25.8581 10.9131 25.8879 10.8666C25.971 10.9363 26.0474 11.0094 26.1171 11.0791L24.5861 12.464L23.8289 13.3773L24.7388 12.6234L26.1271 11.0858C26.1968 11.1622 26.2699 11.2319 26.3363 11.3149C26.2964 11.3481 26.2765 11.398 26.2765 11.4478C26.2765 11.5408 26.3529 11.6172 26.4426 11.6172C26.4824 11.6172 26.5123 11.6072 26.5422 11.5839C26.6053 11.6703 26.6584 11.76 26.7082 11.8463L24.8717 12.7862L23.9019 13.477L24.978 12.9854L26.7149 11.853C26.7714 11.9526 26.8178 12.0555 26.8643 12.1419C26.8079 12.1685 26.7614 12.2349 26.7614 12.3046C26.7614 12.3976 26.8378 12.474 26.9274 12.474C26.954 12.474 26.9739 12.4674 26.9939 12.4574C27.0271 12.557 27.057 12.65 27.0802 12.7463L25.0577 13.1714L23.9484 13.5832L25.1141 13.3873L27.0835 12.7596C27.1068 12.846 27.1333 12.9556 27.1533 13.0552C27.0669 13.0652 27.0071 13.1316 27.0071 13.2246C27.0071 13.3176 27.0869 13.3939 27.1798 13.3939H27.1964C27.2064 13.4936 27.2064 13.6032 27.2064 13.6995L25.144 13.5998L23.9617 13.7028L25.144 13.819L27.2064 13.7094C27.2064 13.819 27.2064 13.922 27.1964 14.0216H27.1798C27.0869 14.0216 27.0071 14.1047 27.0071 14.191C27.0071 14.2773 27.0702 14.3438 27.1533 14.3604C27.1333 14.4633 27.1134 14.563 27.0869 14.6626L26.3828 14.4368L25.1174 14.0249L23.9517 13.829L25.061 14.2408L27.0835 14.6726C27.0603 14.7722 27.0304 14.8751 26.9905 14.9615C26.9839 14.9615 26.9739 14.9548 26.9673 14.9548H26.9274C26.8311 14.9548 26.7547 15.0246 26.7547 15.1242C26.7547 15.1508 26.7614 15.1674 26.7713 15.1906C26.778 15.2172 26.7946 15.2405 26.8178 15.2571C26.8178 15.2571 26.8245 15.2637 26.8311 15.2637C26.8311 15.2637 26.8411 15.2737 26.8477 15.2737C26.8477 15.2737 26.8544 15.2803 26.8577 15.2836C26.8145 15.3766 26.7647 15.4696 26.7116 15.556L24.978 14.4334L23.9019 13.9419H23.9086L24.4732 14.3371L24.8717 14.6227L26.7082 15.5626C26.6551 15.6556 26.5987 15.7486 26.5389 15.8316C26.5123 15.815 26.4758 15.805 26.4392 15.805C26.3429 15.805 26.2699 15.8748 26.2699 15.9678C26.2699 16.0209 26.2931 16.0707 26.333 16.1006C26.2632 16.177 26.1968 16.2534 26.1237 16.3265L24.7355 14.7954L23.8289 14.0415L24.5828 14.9548L26.1138 16.3397C26.044 16.4161 25.971 16.4759 25.8913 16.5423C25.8581 16.5158 25.8215 16.5025 25.785 16.5025C25.692 16.5025 25.6156 16.5855 25.6156 16.6719C25.6156 16.7051 25.6223 16.725 25.6289 16.7482C25.5392 16.8014 25.4462 16.8645 25.3566 16.9243L24.4134 15.0877L23.7259 14.1146L24.2208 15.1906L25.3433 16.9309C25.2536 16.9807 25.1639 17.0305 25.071 17.0737C25.0477 17.0073 24.9846 16.9707 24.9182 16.9707C24.8219 16.9707 24.7455 17.0538 24.7455 17.1401C24.7455 17.1634 24.7521 17.1833 24.7555 17.2065C24.6558 17.2398 24.5628 17.273 24.4599 17.2929L24.0215 15.2704L23.6097 14.1711V14.1644L23.8123 15.3301L24.4466 17.2995C24.347 17.3261 24.244 17.3527 24.1444 17.366C24.1311 17.2896 24.058 17.2232 23.9783 17.2232C23.8787 17.2232 23.8089 17.2995 23.8089 17.3859V17.4091C23.706 17.4191 23.5997 17.4257 23.4968 17.4257L23.5997 15.3633L23.4901 14.181L23.3838 15.3633L23.4868 17.4257C23.3772 17.4257 23.2776 17.4191 23.168 17.4091V17.3859C23.168 17.2995 23.0916 17.2232 22.9953 17.2232C22.9122 17.2232 22.8425 17.2896 22.8292 17.366C22.7296 17.3494 22.63 17.3261 22.5336 17.2995L23.168 15.3301L23.3639 14.1711L22.9521 15.2704L22.5204 17.2929C22.4207 17.2696 22.3244 17.2398 22.2215 17.2065C22.2281 17.1833 22.2347 17.1634 22.2347 17.1401C22.2347 17.0538 22.1584 16.9707 22.0687 16.9707C21.9989 16.9707 21.9358 17.0139 21.906 17.0737C21.8163 17.0305 21.7233 16.9807 21.6336 16.9309L22.7562 15.1906L23.2477 14.1146L22.5635 15.0844L21.6237 16.9276C21.534 16.8678 21.4443 16.8113 21.358 16.7516C21.3779 16.7283 21.3912 16.6984 21.3912 16.6586C21.3912 16.5589 21.3148 16.4825 21.2251 16.4825C21.1687 16.4825 21.1222 16.5091 21.0923 16.549C21.0093 16.4792 20.9329 16.4161 20.8631 16.3397L22.4008 14.9548L23.1547 14.0415L22.2447 14.7954L20.8565 16.3265C20.7801 16.2567 20.7104 16.1737 20.6439 16.1006C20.6838 16.0674 20.7104 16.0176 20.7104 15.9645C20.7104 15.8715 20.634 15.8017 20.541 15.8017C20.5011 15.8017 20.4679 15.8117 20.4414 15.8283C20.3816 15.7453 20.3251 15.6589 20.2753 15.5659L22.1185 14.6194L23.0783 13.9452L22.0023 14.4368L20.2687 15.5593C20.2155 15.4729 20.1757 15.3833 20.1292 15.287C20.1956 15.2637 20.2388 15.2039 20.2388 15.1342C20.2388 15.0346 20.1657 14.9582 20.0661 14.9582C20.0428 14.9582 20.0163 14.9648 19.9963 14.9748C19.9631 14.8818 19.9299 14.7788 19.9 14.6726L21.9226 14.2408L23.0351 13.829L21.8661 14.0249L19.8967 14.6593C19.8701 14.5596 19.8502 14.4633 19.827 14.3537C19.9133 14.3438 19.9731 14.2773 19.9731 14.191C19.9731 14.098 19.8967 14.0216 19.8037 14.0216H19.7838C19.7771 13.922 19.7705 13.819 19.7705 13.7094L21.8362 13.819L23.0152 13.7028L21.8362 13.5998L19.7705 13.6995C19.7705 13.5998 19.7771 13.4902 19.7838 13.3939H19.8137C19.9067 13.3939 19.983 13.3242 19.983 13.2246C19.983 13.1316 19.9133 13.0652 19.8236 13.0552C19.8469 12.9556 19.8635 12.846 19.8934 12.7596L21.8628 13.3873L23.0318 13.5832L21.9192 13.1714L19.8967 12.7397C19.9266 12.6367 19.9598 12.5371 19.993 12.4441C20.0096 12.4507 20.0362 12.4541 20.0561 12.4541C20.1524 12.4541 20.2255 12.3777 20.2255 12.2847C20.2255 12.215 20.1823 12.1519 20.1259 12.1319C20.169 12.0323 20.2155 11.9393 20.2687 11.8463L22.0023 12.9788L23.0816 13.4703L22.1152 12.7795L20.272 11.8397C20.3251 11.7533 20.3816 11.6637 20.4414 11.5707C20.4646 11.5972 20.5078 11.6105 20.541 11.6105C20.6307 11.6105 20.7104 11.5341 20.7104 11.4411C20.7104 11.3913 20.6838 11.3415 20.6473 11.305C20.7104 11.2286 20.7801 11.1588 20.8532 11.0791L22.2414 12.6168L23.1547 13.3707L22.4008 12.4574L20.8631 11.0725C20.9395 11.0028 21.0126 10.9297 21.0923 10.8633C21.1189 10.9031 21.1687 10.9297 21.2251 10.9297C21.3214 10.9297 21.3978 10.8533 21.3978 10.7537C21.3978 10.7138 21.3812 10.6839 21.3613 10.6507C21.4476 10.6009 21.534 10.5411 21.6237 10.4913L22.5635 12.3279L23.2477 13.291L22.7562 12.215L21.6336 10.488C21.7233 10.4348 21.813 10.385 21.906 10.3419C21.9325 10.4083 21.9923 10.4515 22.0654 10.4515C22.1617 10.4515 22.2347 10.3751 22.2347 10.2887C22.2347 10.2622 22.2281 10.2356 22.2248 10.219C22.3211 10.1791 22.424 10.1526 22.5237 10.1193L22.9621 12.1386L23.3739 13.2545L23.1746 12.0888L22.5403 10.1193C22.6399 10.0861 22.7362 10.0695 22.8425 10.0496C22.8525 10.1326 22.9255 10.1957 23.0086 10.1957C23.1049 10.1957 23.1813 10.1193 23.1813 10.0197V10.0031C23.2809 9.99315 23.3872 9.99315 23.4901 9.99315" fill="#16007E"/>
<path d="M23.5066 13.095C23.8454 13.095 24.1177 13.374 24.1177 13.7061C24.1177 14.0382 23.8454 14.3238 23.5066 14.3238C23.1679 14.3238 22.8889 14.0449 22.8889 13.7061C22.8889 13.3674 23.1612 13.095 23.5066 13.095Z" fill="white"/>
<path d="M23.5067 13.2379C23.7657 13.2379 23.9783 13.4471 23.9783 13.7094C23.9783 13.9718 23.7657 14.191 23.5067 14.191C23.2477 14.191 23.0251 13.9785 23.0251 13.7094C23.0251 13.4404 23.241 13.2379 23.5067 13.2379Z" fill="#16007E"/>
</g>
</g>
</svg>
