<svg width="62" height="69" viewBox="0 0 62 69" fill="none" xmlns="http://www.w3.org/2000/svg">
<path opacity="0.2" d="M45.9361 45.9361C54.3927 37.4795 54.3927 23.7686 45.9361 15.312C37.4795 6.8554 23.7686 6.8554 15.312 15.312C6.85542 23.7686 6.85543 37.4795 15.312 45.9361C23.7686 54.3927 37.4795 54.3927 45.9361 45.9361Z" fill="#59B3F7"/>
<path d="M23.2095 41.5758C23.2095 41.0586 37.3599 41.0586 37.3599 41.5758L30.3076 50.6153L23.2095 41.5758Z" fill="#0D142D"/>
<path d="M40.1618 36.6578C42.5457 36.6578 44.4782 34.7252 44.4782 32.3414C44.4782 29.9575 42.5457 28.025 40.1618 28.025C37.7779 28.025 35.8455 29.9575 35.8455 32.3414C35.8455 34.7252 37.7779 36.6578 40.1618 36.6578Z" fill="#FF6161"/>
<path d="M20.4533 36.6578C22.8372 36.6578 24.7697 34.7252 24.7697 32.3414C24.7697 29.9575 22.8372 28.025 20.4533 28.025C18.0695 28.025 16.137 29.9575 16.137 32.3414C16.137 34.7252 18.0695 36.6578 20.4533 36.6578Z" fill="#FF6161"/>
<path d="M17.8401 31.0952L20.7359 34.0385" stroke="#0D142D" stroke-width="0.5" stroke-miterlimit="10" stroke-linecap="round" stroke-linejoin="round"/>
<path d="M18.5083 34.2139L19.3879 32.6685" stroke="#0D142D" stroke-width="0.5" stroke-miterlimit="10" stroke-linecap="round" stroke-linejoin="round"/>
<path d="M42.7749 31.0952L39.8794 34.0385" stroke="#0D142D" stroke-width="0.5" stroke-miterlimit="10" stroke-linecap="round" stroke-linejoin="round"/>
<path d="M42.1072 34.2139L41.2273 32.6685" stroke="#0D142D" stroke-width="0.5" stroke-miterlimit="10" stroke-linecap="round" stroke-linejoin="round"/>
<path d="M43.6589 45.9272C30.3076 45.552 34.9411 35.7361 34.9411 35.7361H25.6738C25.6738 35.7361 30.3076 45.4346 16.956 45.9272C5.83458 46.3376 6.2058 63.5375 6.2058 63.5375C6.2058 70.8268 54.4088 70.8268 54.4088 63.5375C54.4088 63.5375 54.7833 46.24 43.6589 45.9272Z" fill="url(#paint0_linear_29_2137)"/>
<path d="M35.0212 42.5276C29.9367 44.8152 26.5012 40.6686 26.3446 40.4988C26.7801 38.0652 25.6655 35.7361 25.6655 35.7361H34.9342C34.9342 35.7361 33.1276 39.5629 35.0212 42.5276Z" fill="#0D142D"/>
<path d="M41.9972 26.6171C41.9972 33.0731 36.7637 41.5759 30.3074 41.5759C23.8515 41.5759 18.6177 33.0734 18.6177 26.6171C18.6177 20.1609 23.8512 14.9274 30.3074 14.9274C36.7637 14.9277 41.9972 20.1612 41.9972 26.6171Z" fill="url(#paint1_linear_29_2137)"/>
<path opacity="0.5" d="M41.2176 31.2485C39.5372 36.5206 35.2838 41.5751 30.3075 41.5751C25.3314 41.5751 21.078 36.5206 19.3977 31.2485C21.47 35.9068 25.5797 39.9904 30.3075 39.9904C35.0356 39.9904 39.1453 35.9068 41.2176 31.2485Z" fill="white"/>
<path d="M41.9966 26.6165C41.9966 27.9269 41.779 29.3244 41.3785 30.7176C39.8244 26.0986 35.4533 21.7169 30.3075 21.7169C25.1617 21.7169 20.7906 26.0986 19.2365 30.7176C18.836 29.3244 18.6184 27.9269 18.6184 26.6165C18.6184 20.1602 23.8512 14.9274 30.3075 14.9274C36.7638 14.927 41.9966 20.1602 41.9966 26.6165Z" fill="#FF6161"/>
<g opacity="0.5">
<path d="M25.6429 31.9656C25.4774 32.6078 24.4512 32.8982 23.3514 32.6147C22.2513 32.3312 21.4937 31.5805 21.6592 30.9383C21.8247 30.2961 22.8509 30.0057 23.9507 30.2892C25.0508 30.573 25.8084 31.3234 25.6429 31.9656Z" fill="white"/>
<path d="M35.0438 31.9656C35.2093 32.6078 36.2355 32.8982 37.3353 32.6147C38.4354 32.3312 39.193 31.5805 39.0275 30.9383C38.862 30.2961 37.8357 30.0057 36.7356 30.2892C35.6355 30.573 34.8779 31.3234 35.0438 31.9656Z" fill="white"/>
</g>
<path d="M25.9025 30.0835C26.3305 30.0835 26.6776 29.6227 26.6776 29.0542C26.6776 28.4858 26.3305 28.025 25.9025 28.025C25.4744 28.025 25.1274 28.4858 25.1274 29.0542C25.1274 29.6227 25.4744 30.0835 25.9025 30.0835Z" fill="#0D142D"/>
<path d="M35.4878 29.0542C35.4878 29.6226 35.141 30.0835 34.7128 30.0835C34.2849 30.0835 33.9377 29.6226 33.9377 29.0542C33.9377 28.4859 34.2845 28.025 34.7128 28.025C35.1407 28.0247 35.4878 28.4856 35.4878 29.0542Z" fill="#0D142D"/>
<path d="M29.9434 31.7117C29.9434 31.7117 31.9689 30.7145 32.2758 31.8927C32.5214 32.8359 30.0901 33.5813 30.0901 33.5813" stroke="#0D142D" stroke-width="0.5" stroke-miterlimit="10" stroke-linecap="round" stroke-linejoin="round"/>
<path d="M30.7531 29.8014L30.6226 31.452" stroke="#0D142D" stroke-width="0.5" stroke-miterlimit="10" stroke-linecap="round" stroke-linejoin="round"/>
<path d="M28.7935 36.0977C28.7935 36.0977 29.7182 36.6578 30.3076 36.6578C30.8974 36.6578 31.8218 36.0977 31.8218 36.0977" stroke="#0D142D" stroke-width="2" stroke-miterlimit="10" stroke-linecap="round" stroke-linejoin="round"/>
<path d="M23.9534 26.3399L27.2952 26.775C27.6476 26.775 27.9058 26.5031 27.8412 26.2106C27.7617 25.8496 27.56 25.4491 27.0559 25.4491C26.1391 25.4491 23.9534 26.3399 23.9534 26.3399Z" fill="#0D142D"/>
<path d="M36.6614 26.3399L33.3196 26.775C32.9671 26.775 32.709 26.5031 32.7736 26.2106C32.8531 25.8496 33.0548 25.4491 33.5589 25.4491C34.476 25.4491 36.6614 26.3399 36.6614 26.3399Z" fill="#0D142D"/>
<path d="M22.5601 22.2891C22.5601 22.2891 29.5514 24.3854 38.6625 22.3632C38.6625 22.3632 40.0972 29.1637 41.379 30.7171C41.379 30.7171 41.3951 30.7039 41.4083 30.6699C42.8839 26.7749 43.1008 21.8255 43.1008 21.8255C40.1625 13.7055 26.6777 10.8584 20.4538 18.4029C20.4538 18.4029 15.2813 21.6432 19.237 30.7171C19.237 30.7171 19.5182 30.4504 19.9339 29.8012C20.6592 28.6682 21.7946 26.3694 22.5601 22.2891Z" fill="#0D142D"/>
<path d="M40.3935 28.8957C40.3935 28.8957 40.9464 35.8405 35.7195 38.3236C35.7195 38.3236 35.9387 32.0239 30.4233 34.6208C24.908 32.0236 25.1272 38.3236 25.1272 38.3236C19.9003 35.8405 20.4532 28.8957 20.4532 28.8957C20.4532 28.8957 19.2363 20.5917 19.2363 30.7175C19.2363 32.6388 19.6349 34.3837 20.2811 35.95C23.884 44.6849 36.3798 44.9823 40.3428 36.4046C41.1195 34.7236 41.61 32.8267 41.61 30.7171C41.6104 20.5917 40.3935 28.8957 40.3935 28.8957ZM27.2061 36.7564C25.8792 34.4355 30.4233 35.736 30.4233 35.736C30.4233 35.736 34.9013 34.4147 33.4062 36.8121C31.9754 39.1069 28.5485 39.1039 27.2061 36.7564Z" fill="#0D142D"/>
<path d="M43.6598 45.9284C43.644 45.9281 43.6245 45.9317 43.6087 45.9317L43.6179 45.9284C40.4076 45.9284 36.4038 43.6095 36.4038 43.6095L31.0588 47.401C31.0588 47.401 30.3949 49.6204 30.3078 49.6204C30.2373 49.6204 29.5516 47.3852 29.5516 47.3852L24.2119 43.6095C24.2119 43.6095 20.2081 45.9284 16.9978 45.9284L17.0024 45.93C16.9869 45.9304 16.9714 45.9277 16.9559 45.9284C5.83712 46.3375 6.20701 63.5384 6.20701 63.5384C6.20701 70.8261 54.4093 70.8261 54.4093 63.5384C54.4087 63.5387 54.7832 46.2376 43.6598 45.9284Z" fill="#59B3F7"/>
<path d="M28.5923 50.0793L25.7288 43.8835L29.5513 47.3852H31.0641L35.0815 43.7035L32.0136 50.077L28.5923 50.0793Z" fill="white"/>
<path d="M28.7934 51.8269L27.0876 65.8728L30.3435 69.0043L34.0671 65.5211L31.822 51.8269H28.7934Z" fill="white"/>
<path d="M43.6596 45.9278C43.6421 45.9278 43.6246 45.9321 43.6072 45.9321L43.6157 45.9278C42.3356 45.9278 40.9296 45.5576 39.6976 45.1135L30.2852 69.0047C42.3445 69.009 54.4081 67.1889 54.4081 63.5401C54.4085 63.5401 54.7826 46.2367 43.6596 45.9278ZM16.9982 45.9278L17.0025 45.9321C16.985 45.9321 16.9721 45.9278 16.9547 45.9278C5.83557 46.3369 6.20579 63.5401 6.20579 63.5401C6.20579 67.1803 18.2433 69.0001 30.2852 69.0047L20.9252 45.1093C19.6932 45.5576 18.2826 45.9278 16.9982 45.9278Z" fill="#1664AB"/>
<path d="M12.1782 59.7314L14.0161 67.5631" stroke="white" stroke-width="0.5" stroke-miterlimit="10" stroke-linecap="round" stroke-linejoin="round"/>
<path d="M48.4368 59.7314L46.5989 67.5631" stroke="white" stroke-width="0.5" stroke-miterlimit="10" stroke-linecap="round" stroke-linejoin="round"/>
<path d="M23.2094 41.5758L29.5513 47.3849L25.6381 50.3315C22.7255 48.2559 21.238 44.3595 23.2094 41.5758Z" fill="#1664AB"/>
<path d="M37.4044 41.5758L31.0625 47.3849L34.9757 50.3315C37.8883 48.2559 39.3758 44.3595 37.4044 41.5758Z" fill="#1664AB"/>
<path d="M29.5513 47.3853L29.153 47.7466C27.987 48.8045 27.8304 50.5814 28.7933 51.8272H30.2848H31.822L31.8662 51.7666C32.7662 50.5336 32.604 48.823 31.4881 47.7812L31.0641 47.3853H29.5513Z" fill="white"/>
<defs>
<linearGradient id="paint0_linear_29_2137" x1="30.3074" y1="69.0045" x2="30.3074" y2="35.7362" gradientUnits="userSpaceOnUse">
<stop stop-color="#FFB69C"/>
<stop offset="1" stop-color="#FF6161"/>
</linearGradient>
<linearGradient id="paint1_linear_29_2137" x1="30.3076" y1="41.576" x2="30.3076" y2="14.9276" gradientUnits="userSpaceOnUse">
<stop stop-color="#FFB69C"/>
<stop offset="1" stop-color="#FF6161"/>
</linearGradient>
</defs>
</svg>
